<?xml version="1.0" encoding="UTF-8" standalone="no"?>
<!-- Created with Inkscape (http://www.inkscape.org/) -->

<svg
   width="213.68149"
   height="151.25343"
   viewBox="0 0 56.53656 40.01914"
   version="1.1"
   id="svg5667"
   inkscape:version="1.1.1 (3bf5ae0d25, 2021-09-20)"
   sodipodi:docname="cloud.svg"
   xmlns:inkscape="http://www.inkscape.org/namespaces/inkscape"
   xmlns:sodipodi="http://sodipodi.sourceforge.net/DTD/sodipodi-0.dtd"
   xmlns="http://www.w3.org/2000/svg"
   xmlns:svg="http://www.w3.org/2000/svg">
  <sodipodi:namedview
     id="namedview5669"
     pagecolor="#505050"
     bordercolor="#eeeeee"
     borderopacity="1"
     inkscape:pageshadow="0"
     inkscape:pageopacity="0"
     inkscape:pagecheckerboard="0"
     inkscape:document-units="px"
     showgrid="false"
     units="px"
     inkscape:zoom="2.9291246"
     inkscape:cx="111.63745"
     inkscape:cy="67.255588"
     inkscape:window-width="1920"
     inkscape:window-height="1080"
     inkscape:window-x="0"
     inkscape:window-y="0"
     inkscape:window-maximized="1"
     inkscape:current-layer="layer1" />
  <defs
     id="defs5664" />
  <g
     inkscape:label="Layer 1"
     inkscape:groupmode="layer"
     id="layer1"
     transform="translate(-91.67992,-142.02122)">
    <path
       id="path5750"
       style="fill:#ffffff;stroke:none;stroke-width:2;stroke-linejoin:round;paint-order:stroke markers fill;stop-color:#000000"
       d="M 130.55273,0.01367188 A 46.591261,46.591261 0 0 0 127.06836,0.06054687 46.591261,46.591261 0 0 0 99.302734,11.082031 35.365905,35.365905 0 0 0 74.376953,2.4882812 35.365905,35.365905 0 0 0 42.320312,27.640625 32.432898,32.432898 0 0 0 37.179688,27.482422 32.432898,32.432898 0 0 0 7.6699219,50.925781 32.432898,32.432898 0 0 0 0.0703125,69.699219 32.432898,32.432898 0 0 0 15.472656,99.453125 a 32.432898,32.432898 0 0 0 0.976563,5.437495 32.432898,32.432898 0 0 0 39.822265,22.75977 32.432898,32.432898 0 0 0 0.21875,-0.0625 39.590501,39.590501 0 0 0 13.416016,4.63086 39.590501,39.590501 0 0 0 29.308594,9.48437 32.710443,32.710443 0 0 0 20.914066,9.47852 32.710443,32.710443 0 0 0 23.17187,-7.59375 32.710443,32.710443 0 0 0 13.21289,-0.80469 32.710443,32.710443 0 0 0 17.79102,-12.24023 39.831908,39.831908 0 0 0 20.07422,-19.90625 A 39.831908,39.831908 0 0 0 212.2793,66.027344 39.831908,39.831908 0 0 0 200.2168,46.675781 39.831908,39.831908 0 0 0 172.1582,28.078125 46.591261,46.591261 0 0 0 130.55273,0.01367188 Z"
       transform="matrix(0.26458334,0,0,0.26458334,91.67992,142.02122)" />
  </g>
</svg>
